<svg xmlns="http://www.w3.org/2000/svg" viewBox="0 0 241.22 251.52" fill="currentColor"><path d="M.2 193.64h241v58H.2z"/><path d="M5.54 61.56V10.44H40.6v12.24H19.58v8.5h17.14v11.38H19.58v19.01H5.54zM45.14 20.52V9h13.68v11.52H45.14zm0 41.04V23.69h13.68v37.87H45.14zM91.43 35.35c-2.64 0-5.04.29-7.2.86-2.16.58-3.77 1.54-4.82 2.88v22.46H65.73V23.69h12.53v7.2c1.34-2.54 3.01-4.5 5-5.87 1.99-1.37 4.14-2.05 6.44-2.05.91 0 1.49.02 1.73.07v12.31zM114.33 62.28c-3.31 0-6.26-.52-8.86-1.55-2.59-1.03-4.76-2.44-6.52-4.21-1.75-1.78-3.08-3.82-4-6.12-.91-2.3-1.37-4.73-1.37-7.27 0-2.74.44-5.33 1.33-7.78.89-2.45 2.21-4.58 3.96-6.41 1.75-1.82 3.91-3.28 6.48-4.36 2.57-1.08 5.56-1.62 8.96-1.62 3.36 0 6.34.54 8.93 1.62s4.76 2.52 6.52 4.32c1.75 1.8 3.07 3.89 3.96 6.26.89 2.38 1.33 4.86 1.33 7.45 0 .72-.04 1.45-.11 2.2-.07.75-.16 1.4-.25 1.98h-26.57c.14 2.02.89 3.47 2.23 4.36 1.34.89 2.81 1.33 4.39 1.33 1.49 0 2.89-.34 4.21-1.01 1.32-.67 2.2-1.61 2.63-2.81l11.59 3.31c-1.54 3.02-3.9 5.5-7.09 7.42-3.18 1.93-7.1 2.89-11.75 2.89zm6.04-23.69c-.24-1.82-.91-3.26-2.02-4.32-1.1-1.06-2.52-1.58-4.25-1.58s-3.14.53-4.25 1.58c-1.1 1.06-1.78 2.5-2.02 4.32h12.54z"/><g><path d="M18.78 71.44H31.6l17.71 51.12H35.06l-3.1-10.01H18.35l-3.02 10.01H1l17.78-51.12zm10.95 31.75l-4.54-15.84-4.75 15.84h9.29zM78.33 96.35c-2.64 0-5.04.29-7.2.86-2.16.58-3.77 1.54-4.82 2.88v22.46H52.62V84.69h12.53v7.2c1.34-2.54 3.01-4.5 5-5.87 1.99-1.37 4.14-2.05 6.44-2.05.91 0 1.49.02 1.73.07v12.31zM109.14 120.47c-1.92.82-3.97 1.5-6.16 2.05-2.19.55-4.33.83-6.44.83-1.54 0-3-.19-4.39-.58-1.39-.38-2.6-1.01-3.64-1.87-1.03-.86-1.85-1.99-2.45-3.38-.6-1.39-.9-3.12-.9-5.18V94.98h-4.68v-10.3h4.68V72.81h13.68v11.88h7.42v10.3h-7.42v12.53c0 1.25.26 2.12.79 2.63.53.5 1.25.76 2.16.76.67 0 1.44-.11 2.3-.32.86-.22 1.73-.52 2.59-.9l2.46 10.78zM128.65 123.28c-3.31 0-6.55-.54-9.72-1.62s-5.86-2.65-8.06-4.72l4.68-8.21c2.35 1.58 4.62 2.81 6.8 3.67 2.18.86 4.19 1.3 6.01 1.3 1.92 0 2.88-.6 2.88-1.8 0-.67-.37-1.25-1.12-1.73-.75-.48-2.2-1.03-4.36-1.66-2.69-.77-4.93-1.52-6.73-2.27-1.8-.74-3.26-1.55-4.39-2.41-1.13-.86-1.93-1.82-2.41-2.88-.48-1.06-.72-2.3-.72-3.74 0-1.92.38-3.7 1.15-5.33.77-1.63 1.84-3.05 3.2-4.25 1.37-1.2 3-2.12 4.9-2.77 1.9-.65 3.97-.97 6.23-.97 2.78 0 5.44.36 7.96 1.08s5.05 2.18 7.6 4.39l-5.18 8.21c-2.35-1.54-4.32-2.63-5.9-3.28-1.58-.65-3.07-.97-4.46-.97-.82 0-1.49.16-2.02.47-.53.31-.79.8-.79 1.48 0 .72.38 1.31 1.15 1.76.77.46 2.28.97 4.54 1.55 2.74.72 5.04 1.48 6.91 2.27s3.37 1.66 4.5 2.59c1.13.94 1.93 1.99 2.41 3.17.48 1.18.72 2.53.72 4.07 0 1.97-.36 3.72-1.08 5.26-.72 1.54-1.76 2.86-3.13 3.96-1.37 1.1-3.02 1.94-4.97 2.52s-4.15.86-6.6.86z"/></g><g><path d="M.73 157.57c0-3.12.59-6.19 1.76-9.22 1.18-3.02 2.89-5.74 5.15-8.14 2.26-2.4 4.99-4.34 8.21-5.83 3.22-1.49 6.89-2.23 11.02-2.23 4.94 0 9.23 1.02 12.85 3.06 3.62 2.04 6.32 4.74 8.1 8.1l-10.73 7.63c-.48-1.25-1.12-2.28-1.91-3.1-.79-.82-1.67-1.46-2.63-1.94s-1.96-.82-2.99-1.01c-1.03-.19-2.03-.29-2.99-.29-2.02 0-3.76.4-5.22 1.19-1.46.79-2.66 1.82-3.6 3.1-.94 1.27-1.63 2.71-2.09 4.32-.46 1.61-.68 3.2-.68 4.79 0 1.78.26 3.48.79 5.11.53 1.63 1.3 3.07 2.3 4.32 1.01 1.25 2.24 2.24 3.71 2.99 1.46.75 3.11 1.12 4.93 1.12.96 0 1.94-.11 2.95-.32 1.01-.22 1.98-.58 2.92-1.08.94-.5 1.78-1.15 2.52-1.94s1.33-1.76 1.76-2.92l11.45 6.84c-.77 1.87-1.93 3.55-3.49 5.04-1.56 1.49-3.34 2.74-5.33 3.74-1.99 1.01-4.13 1.78-6.41 2.3-2.28.53-4.5.79-6.66.79-3.79 0-7.26-.76-10.4-2.27-3.14-1.51-5.86-3.52-8.14-6.01-2.28-2.5-4.04-5.33-5.29-8.5-1.24-3.16-1.86-6.38-1.86-9.64zM70.64 184.28c-3.31 0-6.26-.52-8.86-1.55-2.59-1.03-4.76-2.44-6.52-4.21-1.75-1.78-3.08-3.82-4-6.12-.91-2.3-1.37-4.73-1.37-7.27 0-2.74.44-5.33 1.33-7.78.89-2.45 2.21-4.58 3.96-6.41 1.75-1.82 3.91-3.28 6.48-4.36 2.57-1.08 5.56-1.62 8.96-1.62 3.36 0 6.34.54 8.93 1.62s4.76 2.52 6.52 4.32c1.75 1.8 3.07 3.89 3.96 6.26.89 2.38 1.33 4.86 1.33 7.45 0 .72-.04 1.45-.11 2.2-.07.75-.16 1.4-.25 1.98H64.45c.14 2.02.89 3.47 2.23 4.36 1.34.89 2.81 1.33 4.39 1.33 1.49 0 2.89-.34 4.21-1.01 1.32-.67 2.2-1.61 2.63-2.81l11.59 3.31c-1.54 3.02-3.9 5.5-7.09 7.42-3.19 1.93-7.11 2.89-11.77 2.89zm6.05-23.69c-.24-1.82-.91-3.26-2.02-4.32-1.1-1.06-2.52-1.58-4.25-1.58s-3.14.53-4.25 1.58c-1.1 1.06-1.78 2.5-2.02 4.32h12.54zM133.93 183.56h-13.68v-21.31c0-1.87-.42-3.23-1.26-4.07-.84-.84-1.81-1.26-2.92-1.26-1.15 0-2.38.5-3.67 1.51-1.3 1.01-2.26 2.3-2.88 3.89v21.24H95.84v-37.87h12.31v5.62c1.34-2.06 3.23-3.64 5.65-4.72 2.42-1.08 5.29-1.62 8.6-1.62 2.59 0 4.64.47 6.16 1.4 1.51.94 2.66 2.1 3.46 3.49.79 1.39 1.31 2.88 1.55 4.46s.36 3.02.36 4.32v24.92zM167.12 181.47c-1.92.82-3.97 1.5-6.16 2.05-2.19.55-4.33.83-6.44.83-1.54 0-3-.19-4.39-.58-1.39-.38-2.6-1.01-3.64-1.87-1.03-.86-1.85-1.99-2.45-3.38-.6-1.39-.9-3.12-.9-5.18v-17.35h-4.68v-10.3h4.68v-11.88h13.68v11.88h7.42v10.3h-7.42v12.53c0 1.25.26 2.12.79 2.63.53.5 1.25.76 2.16.76.67 0 1.44-.11 2.3-.32.86-.22 1.73-.52 2.59-.9l2.46 10.78zM189.22 184.28c-3.31 0-6.26-.52-8.86-1.55-2.59-1.03-4.76-2.44-6.52-4.21-1.75-1.78-3.08-3.82-4-6.12-.91-2.3-1.37-4.73-1.37-7.27 0-2.74.44-5.33 1.33-7.78.89-2.45 2.21-4.58 3.96-6.41 1.75-1.82 3.91-3.28 6.48-4.36 2.57-1.08 5.56-1.62 8.96-1.62 3.36 0 6.34.54 8.93 1.62s4.76 2.52 6.52 4.32c1.75 1.8 3.07 3.89 3.96 6.26.89 2.38 1.33 4.86 1.33 7.45 0 .72-.04 1.45-.11 2.2-.07.75-.16 1.4-.25 1.98h-26.57c.14 2.02.89 3.47 2.23 4.36 1.34.89 2.81 1.33 4.39 1.33 1.49 0 2.89-.34 4.21-1.01 1.32-.67 2.2-1.61 2.63-2.81l11.59 3.31c-1.54 3.02-3.9 5.5-7.09 7.42-3.17 1.93-7.09 2.89-11.75 2.89zm6.05-23.69c-.24-1.82-.91-3.26-2.02-4.32-1.1-1.06-2.52-1.58-4.25-1.58s-3.14.53-4.25 1.58c-1.1 1.06-1.78 2.5-2.02 4.32h12.54zM240.13 157.35c-2.64 0-5.04.29-7.2.86-2.16.58-3.77 1.54-4.82 2.88v22.46h-13.68v-37.87h12.53v7.2c1.34-2.54 3.01-4.5 5-5.87 1.99-1.37 4.14-2.05 6.44-2.05.91 0 1.49.02 1.73.07v12.32z"/></g><g><path fill="#000" d="M23.2 235.96c-1.99 0-3.73-.31-5.23-.94-1.5-.63-2.76-1.47-3.78-2.52s-1.79-2.27-2.31-3.65c-.52-1.39-.78-2.83-.78-4.35 0-1.51.26-2.96.78-4.35.52-1.39 1.29-2.6 2.31-3.65 1.02-1.05 2.28-1.89 3.78-2.52 1.5-.63 3.24-.95 5.23-.95 1.96 0 3.7.32 5.21.95 1.51.63 2.78 1.47 3.8 2.52s1.79 2.27 2.31 3.65c.52 1.39.78 2.83.78 4.35 0 1.51-.26 2.96-.78 4.35-.52 1.39-1.29 2.6-2.31 3.65-1.02 1.05-2.29 1.89-3.8 2.52-1.51.63-3.25.94-5.21.94zm-3.9-11.47c0 1.48.36 2.65 1.09 3.49.73.84 1.67 1.26 2.81 1.26 1.15 0 2.09-.42 2.81-1.26.73-.84 1.09-2 1.09-3.49 0-1.48-.36-2.65-1.09-3.49-.73-.84-1.67-1.26-2.81-1.26-1.15 0-2.09.42-2.81 1.26-.73.85-1.09 2.01-1.09 3.49zM39.67 235.54v-13.52h-2.73v-6.01h2.73v-2.39c0-1.37.2-2.62.59-3.76.39-1.13.94-2.1 1.64-2.9.7-.8 1.55-1.41 2.54-1.85.99-.43 2.11-.65 3.34-.65 1.85 0 3.89.42 6.13 1.26l-1.34 6.05c-.48-.17-.99-.31-1.53-.42-.55-.11-1.03-.17-1.45-.17-1.29 0-1.93.71-1.93 2.14v2.69h4.83v6.01h-4.83v13.52h-7.99zM62.56 220.38c0-1.82.34-3.61 1.03-5.38.69-1.76 1.69-3.35 3-4.75 1.32-1.4 2.91-2.53 4.79-3.4 1.88-.87 4.02-1.3 6.43-1.3 2.88 0 5.38.6 7.5 1.78 2.11 1.19 3.69 2.77 4.73 4.73l-6.26 4.45c-.28-.73-.65-1.33-1.11-1.81-.46-.48-.97-.85-1.53-1.13-.56-.28-1.14-.48-1.74-.59-.6-.11-1.18-.17-1.74-.17-1.18 0-2.19.23-3.04.69-.85.46-1.55 1.06-2.1 1.81-.55.74-.95 1.58-1.22 2.52s-.4 1.87-.4 2.79c0 1.04.15 2.03.46 2.98.31.95.76 1.79 1.34 2.52.59.73 1.31 1.31 2.16 1.74.85.43 1.81.65 2.88.65.56 0 1.13-.06 1.72-.19s1.15-.34 1.7-.63 1.04-.67 1.47-1.13c.43-.46.78-1.03 1.03-1.7l6.68 3.99c-.45 1.09-1.13 2.07-2.04 2.94-.91.87-1.95 1.6-3.11 2.18-1.16.59-2.41 1.04-3.74 1.34-1.33.31-2.62.46-3.89.46-2.21 0-4.24-.44-6.07-1.32-1.83-.88-3.42-2.05-4.75-3.51s-2.36-3.11-3.09-4.96c-.73-1.82-1.09-3.7-1.09-5.6zM114.89 235.54h-7.98v-12.43c0-1.09-.25-1.88-.73-2.37-.49-.49-1.1-.73-1.83-.73-.25 0-.55.08-.9.23-.35.15-.7.36-1.05.63-.35.27-.68.6-.99.99-.31.39-.56.83-.76 1.3v12.39h-7.98v-30.66h7.98v11.84c.78-1.2 1.81-2.12 3.07-2.75 1.26-.63 2.67-.95 4.24-.95 1.54 0 2.77.27 3.7.8.92.53 1.62 1.2 2.1 1.99.48.8.78 1.66.92 2.58.14.92.21 1.79.21 2.6v14.54zM118.75 211.6v-6.72h7.98v6.72h-7.98zm0 23.94v-22.09h7.98v22.09h-7.98zM129.54 224.49c0-1.51.27-2.96.8-4.35.53-1.39 1.31-2.6 2.33-3.65 1.02-1.05 2.29-1.89 3.8-2.52s3.25-.95 5.21-.95c2.69 0 4.94.56 6.74 1.68 1.81 1.12 3.16 2.56 4.05 4.33l-7.77 2.35c-.76-1.09-1.78-1.64-3.07-1.64-1.09 0-2.02.41-2.77 1.24-.76.83-1.13 2-1.13 3.51 0 1.51.38 2.68 1.13 3.51.76.83 1.68 1.24 2.77 1.24 1.29 0 2.31-.55 3.07-1.64l7.77 2.35c-.9 1.76-2.25 3.21-4.05 4.33-1.81 1.12-4.05 1.68-6.74 1.68-1.96 0-3.7-.31-5.21-.94s-2.78-1.47-3.8-2.52-1.8-2.27-2.33-3.65c-.53-1.39-.8-2.84-.8-4.36zM161.51 235.96c-1.09 0-2.11-.18-3.07-.55-.95-.36-1.77-.86-2.46-1.49s-1.23-1.38-1.62-2.25c-.39-.87-.59-1.81-.59-2.81 0-1.12.24-2.14.71-3.07.48-.92 1.13-1.72 1.97-2.39.84-.67 1.84-1.19 3-1.55 1.16-.36 2.44-.55 3.84-.55 1.79 0 3.28.28 4.45.84v-.67c0-1.04-.3-1.81-.9-2.31-.6-.5-1.57-.76-2.92-.76-1.26 0-2.42.2-3.49.61-1.06.41-2.18 1-3.36 1.78l-2.31-4.96c2.91-1.88 6.23-2.81 9.95-2.81 3.53 0 6.24.78 8.15 2.35 1.9 1.57 2.86 3.92 2.86 7.06v4.28c0 .76.11 1.28.34 1.57.22.29.62.47 1.18.52v6.72c-.64.14-1.25.24-1.83.31-.57.07-1.09.1-1.53.1-1.43 0-2.51-.26-3.25-.78-.74-.52-1.23-1.28-1.45-2.29l-.17-.8c-.98 1.26-2.11 2.22-3.4 2.88-1.28.69-2.65 1.02-4.1 1.02zm2.39-5.71c.48 0 .97-.08 1.47-.23.5-.15.95-.36 1.34-.61.31-.22.56-.47.76-.74.2-.27.29-.54.29-.82v-1.64c-.48-.17-.99-.31-1.55-.42-.56-.11-1.06-.17-1.51-.17-.98 0-1.79.24-2.44.71-.64.48-.97 1.08-.97 1.81 0 .62.24 1.12.73 1.51.5.4 1.13.6 1.88.6zM188.64 235.54c-1.43 0-2.74-.29-3.93-.86-1.19-.57-2.21-1.36-3.05-2.35-.84-.99-1.49-2.16-1.95-3.51-.46-1.34-.69-2.8-.69-4.37 0-1.65.25-3.18.76-4.58.5-1.4 1.21-2.6 2.12-3.61.91-1.01 2-1.8 3.26-2.37 1.26-.57 2.65-.86 4.16-.86 1.6 0 3 .32 4.2.95 1.2.63 2.16 1.55 2.86 2.75v-3.28h6.93v20.08c0 1.74-.32 3.3-.97 4.7-.64 1.4-1.55 2.59-2.73 3.57s-2.59 1.74-4.24 2.29c-1.65.55-3.49.82-5.5.82-2.35 0-4.4-.36-6.13-1.09-1.74-.73-3.28-1.78-4.62-3.15l4.2-4.37c.81.76 1.79 1.39 2.92 1.91s2.34.78 3.63.78c.73 0 1.42-.1 2.08-.29.66-.2 1.24-.51 1.74-.94.5-.43.9-1 1.2-1.7s.44-1.54.44-2.52v-1.43c-.64 1.18-1.56 2.04-2.75 2.6-1.2.55-2.51.83-3.94.83zm2.86-6.3c.81 0 1.52-.19 2.12-.57.6-.38 1.17-.94 1.7-1.7v-3.95c-.39-1.01-.97-1.81-1.74-2.39-.77-.59-1.58-.88-2.42-.88-.56 0-1.09.13-1.58.4s-.92.62-1.28 1.05c-.36.43-.64.95-.84 1.55-.2.6-.29 1.24-.29 1.91 0 1.37.41 2.48 1.22 3.32.81.84 1.85 1.26 3.11 1.26zM218.21 235.96c-1.99 0-3.73-.31-5.23-.94-1.5-.63-2.76-1.47-3.78-2.52s-1.79-2.27-2.31-3.65c-.52-1.39-.78-2.83-.78-4.35 0-1.51.26-2.96.78-4.35.52-1.39 1.29-2.6 2.31-3.65 1.02-1.05 2.28-1.89 3.78-2.52 1.5-.63 3.24-.95 5.23-.95 1.96 0 3.7.32 5.21.95 1.51.63 2.78 1.47 3.8 2.52s1.79 2.27 2.31 3.65c.52 1.39.78 2.83.78 4.35 0 1.51-.26 2.96-.78 4.35-.52 1.39-1.29 2.6-2.31 3.65-1.02 1.05-2.29 1.89-3.8 2.52-1.52.63-3.25.94-5.21.94zm-3.91-11.47c0 1.48.36 2.65 1.09 3.49.73.84 1.67 1.26 2.81 1.26 1.15 0 2.09-.42 2.81-1.26.73-.84 1.09-2 1.09-3.49 0-1.48-.36-2.65-1.09-3.49-.73-.84-1.67-1.26-2.81-1.26-1.15 0-2.09.42-2.81 1.26-.73.85-1.09 2.01-1.09 3.49z"/></g></svg>
